<svg width="1095" height="511" viewBox="0 0 1095 511" fill="none" xmlns="http://www.w3.org/2000/svg">
<mask id="path-1-inside-1_410_6717" fill="white">
<path d="M703.515 1.12631C703.515 0.525204 704.108 0.103272 704.682 0.282197C708.257 1.39691 712.058 2 716 2H872.895C898.102 2.00008 920.325 14.7768 933.441 34.207C944.047 49.9175 959.294 64.8076 978.249 64.8076H1072.87C1085.02 64.8076 1094.87 74.6573 1094.87 86.8076V485C1094.87 499.359 1083.23 511 1068.87 511H26C11.6407 511 0.000195478 499.359 0 485V86.8076C0 74.6573 9.84974 64.8076 22 64.8076H116.54C135.495 64.8076 150.742 49.9175 161.348 34.207C174.464 14.7769 196.687 2.00004 221.895 2H702.641C703.123 2 703.515 1.60883 703.515 1.12631Z"/>
</mask>
<path d="M703.515 1.12631C703.515 0.525204 704.108 0.103272 704.682 0.282197C708.257 1.39691 712.058 2 716 2H872.895C898.102 2.00008 920.325 14.7768 933.441 34.207C944.047 49.9175 959.294 64.8076 978.249 64.8076H1072.87C1085.02 64.8076 1094.87 74.6573 1094.87 86.8076V485C1094.87 499.359 1083.23 511 1068.87 511H26C11.6407 511 0.000195478 499.359 0 485V86.8076C0 74.6573 9.84974 64.8076 22 64.8076H116.54C135.495 64.8076 150.742 49.9175 161.348 34.207C174.464 14.7769 196.687 2.00004 221.895 2H702.641C703.123 2 703.515 1.60883 703.515 1.12631Z" fill="#191933"/>
<path d="M716 2V7V2ZM872.895 2V-3V2ZM933.441 34.207L929.297 37.0046V37.0046L933.441 34.207ZM1094.87 485L1099.87 485V485H1094.87ZM0 485H-5V485L0 485ZM116.54 64.8076V69.8076H116.54L116.54 64.8076ZM161.348 34.207L165.492 37.0046V37.0046L161.348 34.207ZM221.895 2V-3H221.895L221.895 2ZM704.682 0.282197L703.193 5.05555L704.682 0.282197ZM704.682 0.282197L703.193 5.05555C707.243 6.3181 711.545 7 716 7V2V-3C712.571 -3 709.271 -3.52427 706.17 -4.49116L704.682 0.282197ZM716 2V7H872.895V2V-3H716V2ZM872.895 2V7C896.37 7.00007 917.07 18.8926 929.297 37.0046L933.441 34.207L937.586 31.4095C923.579 10.661 899.833 -2.99991 872.895 -3V2ZM933.441 34.207L929.297 37.0046C940.059 52.9467 956.612 69.8076 978.249 69.8076V64.8076V59.8076C961.976 59.8076 948.035 46.8884 937.586 31.4095L933.441 34.207ZM978.249 64.8076V69.8076H1072.87V64.8076V59.8076H978.249V64.8076ZM1094.87 86.8076H1089.87V485H1094.87H1099.87V86.8076H1094.87ZM1094.87 485L1089.87 485C1089.87 496.598 1080.47 506 1068.87 506V511V516C1085.99 516 1099.87 502.121 1099.87 485L1094.87 485ZM1068.87 511V506H26V511V516H1068.87V511ZM26 511V506C14.4022 506 5.00016 496.598 5 485L0 485L-5 485C-4.99977 502.121 8.87923 516 26 516V511ZM0 485H5V86.8076H0H-5V485H0ZM22 64.8076V69.8076H116.54V64.8076V59.8076H22V64.8076ZM116.54 64.8076L116.54 69.8076C138.177 69.8076 154.73 52.9467 165.492 37.0046L161.348 34.207L157.204 31.4095C146.754 46.8884 132.814 59.8076 116.54 59.8076L116.54 64.8076ZM161.348 34.207L165.492 37.0046C177.719 18.8926 198.419 7.00004 221.895 7L221.895 2L221.895 -3C194.956 -2.99996 171.21 10.6611 157.204 31.4095L161.348 34.207ZM221.895 2V7H702.641V2V-3H221.895V2ZM702.641 2V7C705.885 7 708.515 4.37028 708.515 1.12631H703.515H698.515C698.515 -1.15261 700.362 -3 702.641 -3V2ZM0 86.8076H5C5 77.4188 12.6112 69.8076 22 69.8076V64.8076V59.8076C7.08831 59.8076 -5 71.8959 -5 86.8076H0ZM1072.87 64.8076V69.8076C1082.26 69.8076 1089.87 77.4188 1089.87 86.8076H1094.87H1099.87C1099.87 71.8959 1087.79 59.8076 1072.87 59.8076V64.8076ZM704.682 0.282197L706.17 -4.49116C702.493 -5.63773 698.515 -2.96675 698.515 1.12631H703.515H708.515C708.515 4.01716 705.723 5.84427 703.193 5.05555L704.682 0.282197Z" fill="url(#paint0_linear_410_6717)" mask="url(#path-1-inside-1_410_6717)"/>
<defs>
<linearGradient id="paint0_linear_410_6717" x1="-4.28539e-06" y1="257.082" x2="1094.87" y2="257.082" gradientUnits="userSpaceOnUse">
<stop stop-color="#4547BB"/>
<stop offset="0.403846" stop-color="#03D75C"/>
<stop offset="0.596154" stop-color="#03D75C"/>
<stop offset="1" stop-color="#4547BB"/>
</linearGradient>
</defs>
</svg>
