<svg width="300" height="126" viewBox="0 0 300 126" fill="none" xmlns="http://www.w3.org/2000/svg">
<mask id="path-1-inside-1_612_1856" fill="white">
<path d="M291 0C295.971 0 300 4.02944 300 9V100C300 105.523 295.523 110 290 110H116C106.646 110 98.2941 114.281 92.7928 120.991C90.4429 123.857 87.1443 126 83.4381 126H9C4.0295 126 9.48745e-05 121.97 0 117V9C3.08331e-06 4.02944 4.02944 0 9 0H291Z"/>
</mask>
<path d="M291 0C295.971 0 300 4.02944 300 9V100C300 105.523 295.523 110 290 110H116C106.646 110 98.2941 114.281 92.7928 120.991C90.4429 123.857 87.1443 126 83.4381 126H9C4.0295 126 9.48745e-05 121.97 0 117V9C3.08331e-06 4.02944 4.02944 0 9 0H291Z" fill="white" fill-opacity="0.37"/>
<path d="M300 9H302H300ZM116 110V108V110ZM0 117H-2V117L0 117ZM0 9L-2 9V9H0ZM291 0V2C294.866 2 298 5.13401 298 9H300H302C302 2.92487 297.075 -2 291 -2V0ZM300 9H298V100H300H302V9H300ZM290 110V108H116V110V112H290V110ZM116 110V108C106.022 108 97.111 112.57 91.2462 119.723L92.7928 120.991L94.3394 122.259C99.4772 115.993 107.271 112 116 112V110ZM83.4381 126V124H9V126V128H83.4381V126ZM9 126V124C5.1341 124 2.00007 120.866 2 117L0 117L-2 117C-1.99988 123.075 2.92489 128 9 128V126ZM0 117H2V9H0H-2V117H0ZM0 9L2 9C2 5.13401 5.13401 2 9 2V0V-2C2.92487 -2 -2 2.92487 -2 9L0 9ZM9 0V2H291V0V-2H9V0ZM92.7928 120.991L91.2462 119.723C89.1303 122.303 86.3479 124 83.4381 124V126V128C87.9407 128 91.7554 125.41 94.3394 122.259L92.7928 120.991ZM300 100H298C298 104.418 294.418 108 290 108V110V112C296.627 112 302 106.627 302 100H300Z" fill="url(#paint0_linear_612_1856)" mask="url(#path-1-inside-1_612_1856)"/>
<defs>
<linearGradient id="paint0_linear_612_1856" x1="7.96117e-07" y1="63.1736" x2="300" y2="63.1736" gradientUnits="userSpaceOnUse">
<stop stop-color="#4547BB"/>
<stop offset="1" stop-color="#03D75C"/>
</linearGradient>
</defs>
</svg>
